<svg id="Layer_1" data-name="Layer 1" xmlns="http://www.w3.org/2000/svg" viewBox="0 0 1080 301.97"><defs><style>.cls-1{fill:#fff;}.cls-2{fill:#1c96f7;}.cls-3{fill:#96d2f6;}.cls-4{fill:#46b1f7;}</style></defs><title>Artboard 7 copy 4</title><path class="cls-1" d="M409.1,137.71q-13.32,0-23.18-5.64a40,40,0,0,1-15.33-15.51,45.91,45.91,0,0,1-5.48-22.67,44.73,44.73,0,0,1,5.65-22.66,41.08,41.08,0,0,1,15.5-15.51,45.16,45.16,0,0,1,22.84-5.64q16.17,0,27.3,8.42t14,23.26h-24.1a15,15,0,0,0-6.15-9.27,20.3,20.3,0,0,0-21.74-.42,20.23,20.23,0,0,0-7.34,8.51,30.38,30.38,0,0,0-2.69,13.31,31.72,31.72,0,0,0,1.51,10.2,22.91,22.91,0,0,0,4.3,7.67,18.94,18.94,0,0,0,6.49,4.88,19.61,19.61,0,0,0,8.26,1.69,21,21,0,0,0,7.92-1.43,16.46,16.46,0,0,0,6.07-4.22,14.28,14.28,0,0,0,3.37-6.65h24.1a37.35,37.35,0,0,1-14,23.09Q425.27,137.71,409.1,137.71Z"/><path class="cls-1" d="M503.81,137.71a43.5,43.5,0,0,1-21.91-5.56,40.45,40.45,0,0,1-15.42-15.51,45.17,45.17,0,0,1-5.65-22.75,44.59,44.59,0,0,1,5.73-22.83,41.22,41.22,0,0,1,15.51-15.42,45.61,45.61,0,0,1,43.65,0,40.7,40.7,0,0,1,15.42,15.42,45.15,45.15,0,0,1,5.64,22.83,44.6,44.6,0,0,1-5.73,22.84,41.49,41.49,0,0,1-15.42,15.42A43,43,0,0,1,503.81,137.71Zm-.17-19.21a18.62,18.62,0,0,0,10-2.78,20.23,20.23,0,0,0,7.24-8.26,29.68,29.68,0,0,0,2.78-13.57q0-8.25-2.78-13.73A19.62,19.62,0,0,0,513.67,72,18.49,18.49,0,0,0,504,69.29,19.25,19.25,0,0,0,494,72a18.84,18.84,0,0,0-7.24,8.18q-2.7,5.48-2.7,13.73a30.52,30.52,0,0,0,2.7,13.57,19.59,19.59,0,0,0,7.16,8.26A18,18,0,0,0,503.64,118.5Z"/><path class="cls-1" d="M559.76,135.69V52.1h19.89l2,13.31h.5A26.87,26.87,0,0,1,592.88,54a31.68,31.68,0,0,1,15.92-3.87,37.24,37.24,0,0,1,11.46,1.68A26.23,26.23,0,0,1,629.53,57a28.39,28.39,0,0,1,6.74,9.1h.51a34.46,34.46,0,0,1,11.88-11.8q7.15-4.22,17.44-4.21,10.11,0,17.28,4.46a28.88,28.88,0,0,1,11,13.06q3.89,8.59,3.88,21.24v46.85H675.71V90.86q0-10.45-4.05-16t-12.81-5.56a18.18,18.18,0,0,0-9.69,2.53,17.18,17.18,0,0,0-6.49,7.41,27.89,27.89,0,0,0-2.36,12.14v44.32H617.73V90.86q0-10.45-4-16t-12.81-5.56a16.51,16.51,0,0,0-9.27,2.78A18.93,18.93,0,0,0,585,80a29.08,29.08,0,0,0-2.44,12.55v43.15Z"/><path class="cls-1" d="M713.45,170.24V52.1h19.38l1.52,14h.51a37.08,37.08,0,0,1,7.5-8.43,32.85,32.85,0,0,1,9.94-5.56,37,37,0,0,1,12.56-2,37.23,37.23,0,0,1,34.63,21.23,49.88,49.88,0,0,1,5,22.58,49.9,49.9,0,0,1-5,22.59,38.11,38.11,0,0,1-14,15.59,39,39,0,0,1-21.15,5.64A35.88,35.88,0,0,1,747.5,134a33,33,0,0,1-11.29-9.27v45.51Zm45.17-51.4a22.27,22.27,0,0,0,12-3.21,21.32,21.32,0,0,0,7.92-8.76,28.34,28.34,0,0,0,2.78-12.81,28.75,28.75,0,0,0-2.78-13,21.44,21.44,0,0,0-7.92-8.76,24.12,24.12,0,0,0-24,0,21.7,21.7,0,0,0-8.09,8.76,27.47,27.47,0,0,0-2.87,12.81,27.84,27.84,0,0,0,2.87,13,21.58,21.58,0,0,0,8.09,8.76A22.32,22.32,0,0,0,758.62,118.84Z"/><path class="cls-1" d="M857.88,137.71A43.5,43.5,0,0,1,836,132.15a40.52,40.52,0,0,1-15.42-15.51,45.27,45.27,0,0,1-5.64-22.75,44.59,44.59,0,0,1,5.73-22.83,41.12,41.12,0,0,1,15.5-15.42,45.61,45.61,0,0,1,43.65,0,40.7,40.7,0,0,1,15.42,15.42,45.16,45.16,0,0,1,5.65,22.83,44.7,44.7,0,0,1-5.73,22.84,41.51,41.51,0,0,1-15.43,15.42A43,43,0,0,1,857.88,137.71Zm-.17-19.21a18.62,18.62,0,0,0,10-2.78,20.33,20.33,0,0,0,7.25-8.26,29.81,29.81,0,0,0,2.78-13.57q0-8.25-2.78-13.73A19.7,19.7,0,0,0,867.74,72a18.49,18.49,0,0,0-9.69-2.69A19.19,19.19,0,0,0,848.11,72a18.8,18.8,0,0,0-7.25,8.18q-2.7,5.48-2.7,13.73a30.52,30.52,0,0,0,2.7,13.57,19.65,19.65,0,0,0,7.16,8.26A18,18,0,0,0,857.71,118.5Z"/><path class="cls-1" d="M948.89,137.71A49.4,49.4,0,0,1,929.17,134a33.92,33.92,0,0,1-13.65-10.19,28.18,28.18,0,0,1-5.9-14.75H932.2a17.06,17.06,0,0,0,2.87,5.73,14,14,0,0,0,5.47,4.3,18.81,18.81,0,0,0,8,1.6,18.1,18.1,0,0,0,7.5-1.35,10,10,0,0,0,4.3-3.37,7.54,7.54,0,0,0,1.34-4.21,6.34,6.34,0,0,0-2.1-5.14,18.12,18.12,0,0,0-6.07-3q-4-1.26-9.19-2.78-5.55-1.35-11.2-3.11a60.16,60.16,0,0,1-10.37-4.3,21,21,0,0,1-7.58-6.74,17.86,17.86,0,0,1-2.86-10.28,23,23,0,0,1,4-13.32,28,28,0,0,1,11.71-9.44q7.66-3.53,18.46-3.53,15.16,0,24.18,6.91t10.53,19h-21.4a9.71,9.71,0,0,0-4.3-6.49,16.09,16.09,0,0,0-9-2.27c-3.94,0-6.94.73-9,2.19a6.44,6.44,0,0,0-3.12,5.39,5,5,0,0,0,2.11,4,18.89,18.89,0,0,0,6,3q3.88,1.27,9.44,2.78,8.93,2.2,16.26,4.81A30.17,30.17,0,0,1,980,96.67c3,3.1,4.47,7.56,4.47,13.4a23.18,23.18,0,0,1-4.22,14.16,29.73,29.73,0,0,1-12.3,9.86Q960,137.7,948.89,137.71Z"/><path class="cls-1" d="M1037.7,137.71a46.55,46.55,0,0,1-22.67-5.39,38.93,38.93,0,0,1-15.42-15.17,44.59,44.59,0,0,1-5.56-22.41,47.5,47.5,0,0,1,5.48-23.18,40.12,40.12,0,0,1,15.34-15.75q9.86-5.73,23-5.73a43.37,43.37,0,0,1,21.91,5.39,39.4,39.4,0,0,1,14.83,14.75A41.59,41.59,0,0,1,1080,91.37v3.79a27.43,27.43,0,0,1-.34,4.29h-69.43v-14h46.68a17.67,17.67,0,0,0-5.81-12.64,19.17,19.17,0,0,0-13.23-4.72,22.53,22.53,0,0,0-10.79,2.61,18.81,18.81,0,0,0-7.75,7.92q-2.87,5.31-2.87,13.4v4.89a24.53,24.53,0,0,0,2.7,11.88,19,19,0,0,0,7.5,7.67,21.9,21.9,0,0,0,10.87,2.69,18.52,18.52,0,0,0,10.45-2.78,18.2,18.2,0,0,0,6.4-7.16h23.26a41.14,41.14,0,0,1-8.09,14.41,40.21,40.21,0,0,1-13.65,10.28A42.33,42.33,0,0,1,1037.7,137.71Z"/><path class="cls-1" d="M401.71,253.63a36.76,36.76,0,0,1-18.59-4.53,32.06,32.06,0,0,1-12.31-12.44,36.85,36.85,0,0,1-4.39-18.19A36,36,0,0,1,371,200.28a33,33,0,0,1,12.44-12.45,36.2,36.2,0,0,1,18.32-4.52q13,0,21.91,6.76t11.23,18.66H415.51a12,12,0,0,0-4.94-7.44,15.26,15.26,0,0,0-9-2.7,15.45,15.45,0,0,0-8.45,2.36,16.28,16.28,0,0,0-5.88,6.83,24.21,24.21,0,0,0-2.17,10.69,25.44,25.44,0,0,0,1.22,8.18,18.06,18.06,0,0,0,3.45,6.15,15.09,15.09,0,0,0,5.2,3.92,15.75,15.75,0,0,0,6.63,1.36,17,17,0,0,0,6.36-1.15,13.18,13.18,0,0,0,4.86-3.39,11.24,11.24,0,0,0,2.71-5.34h19.34a29.94,29.94,0,0,1-11.23,18.53Q414.7,253.63,401.71,253.63Z"/><path class="cls-1" d="M445.26,252V184.93H461l1.62,14.2H463a29.79,29.79,0,0,1,6.42-9.87,19.39,19.39,0,0,1,8.11-4.67,37.33,37.33,0,0,1,10.21-1.28v19.33h-4.86a30,30,0,0,0-8.19,1,15.2,15.2,0,0,0-6.08,3.24,14,14,0,0,0-3.79,5.82,26.39,26.39,0,0,0-1.28,8.86V252Z"/><path class="cls-1" d="M517.48,253.63q-8.11,0-13.39-2.71a17.7,17.7,0,0,1-7.78-7.3,20.81,20.81,0,0,1-2.5-10.14,19.2,19.2,0,0,1,3.18-11,20.55,20.55,0,0,1,9.67-7.37q6.49-2.62,16.36-2.63h16.91a20.78,20.78,0,0,0-1.42-8.25,9.63,9.63,0,0,0-4.33-4.81,15.63,15.63,0,0,0-7.37-1.55,16.82,16.82,0,0,0-9,2.3,10.35,10.35,0,0,0-4.66,7.3H495.43a25.26,25.26,0,0,1,4.94-12.85,27.05,27.05,0,0,1,10.95-8.38,38.49,38.49,0,0,1,15.49-3,40.47,40.47,0,0,1,16.77,3.17,24,24,0,0,1,10.82,9.33,28.06,28.06,0,0,1,3.78,14.95V252H542.9L541,241.59h-.41a25.43,25.43,0,0,1-4.33,5.21,24.69,24.69,0,0,1-5.27,3.72,27.07,27.07,0,0,1-6.29,2.3A31.54,31.54,0,0,1,517.48,253.63Zm5.68-14.07a15.53,15.53,0,0,0,6.49-1.28,14.54,14.54,0,0,0,4.8-3.45,16.47,16.47,0,0,0,3.11-5.07,26,26,0,0,0,1.56-6H525.05a19.45,19.45,0,0,0-6.83,1,7.85,7.85,0,0,0-3.85,2.84,7.46,7.46,0,0,0-1.22,4.27,7.12,7.12,0,0,0,1.22,4.19,7.25,7.25,0,0,0,3.51,2.63A14.61,14.61,0,0,0,523.16,239.56Z"/><path class="cls-1" d="M565.21,199.67V184.93h41.52v14.74Zm9.2,52.33V179.79q0-8.52,2.84-13.53a16.89,16.89,0,0,1,8.11-7.3,31.05,31.05,0,0,1,12.45-2.3h7.57v15.28h-4.73c-2.89,0-4.94.57-6.16,1.69s-1.82,3.09-1.82,5.89V252Z"/><path class="cls-1" d="M645.81,252a32.19,32.19,0,0,1-12.5-2.23,16.78,16.78,0,0,1-8.32-7.43q-3-5.22-3-14.27v-28.4H610.52V184.93H622l2-18.26h16.23v18.26h17.85v14.74H640.27v28.67q0,4.72,2,6.56t6.9,1.82h8.52V252Z"/><polygon class="cls-2" points="189.34 151 226.61 211.94 281.64 301.97 318.91 241.02 263.85 151 318.91 60.95 281.64 0 226.61 90.05 189.34 151"/><polygon class="cls-3" points="114.83 151 189.34 151 226.61 90.05 281.64 0 207.13 0 189.34 29.1 152.09 90.03 152.09 90.05 114.83 151"/><polygon class="cls-4" points="114.83 151 152.09 211.94 189.34 272.89 207.13 301.97 281.64 301.97 226.61 211.94 189.34 151 114.83 151"/><polygon class="cls-2" points="57.41 150.99 86.13 197.96 128.53 267.32 157.25 220.36 114.83 150.99 157.25 81.61 128.53 34.65 86.13 104.03 57.41 150.99"/><polygon class="cls-3" points="0 150.99 57.41 150.99 86.13 104.03 128.53 34.65 71.12 34.65 57.41 57.07 28.72 104.01 28.72 104.03 0 150.99"/><polygon class="cls-4" points="0 150.99 28.72 197.96 57.41 244.92 71.12 267.32 128.53 267.32 86.13 197.96 57.41 150.99 0 150.99"/></svg>